<?xml version="1.0" encoding="iso-8859-1"?>
<!-- Generator: Adobe Illustrator 19.0.0, SVG Export Plug-In . SVG Version: 6.00 Build 0)  -->
<svg version="1.1" id="Capa_1" xmlns="http://www.w3.org/2000/svg" xmlns:xlink="http://www.w3.org/1999/xlink" x="0px" y="0px"
	 viewBox="0 0 512 512" style="enable-background:new 0 0 512 512;" xml:space="preserve">
<path style="fill:#FF4F19;" d="M241,512h-80V380h80V512z"/>
<path style="fill:#009AE5;" d="M351,512h-80V380h80V512z"/>
<path style="fill:#AEADB3;" d="M476,410H36V0h440V410z"/>
<rect x="256" style="fill:#57555C;" width="220" height="410"/>
<path style="fill:#C8C6CD;" d="M416,350H101V60h315V350z"/>
<rect x="256" y="60" style="fill:#AEADB3;" width="160" height="290"/>
<g>
	<rect x="76" y="100" style="fill:#C06100;" width="40" height="30"/>
	<rect x="76" y="280" style="fill:#C06100;" width="40" height="30"/>
</g>
<path style="fill:#FFDB2D;" d="M379.629,276H142.372L261,104.647L379.629,276z"/>
<polygon style="fill:#FEC000;" points="256,276 379.629,276 261,104.647 256,111.87 "/>
<polygon style="fill:#FF4F19;" points="242.21,316.032 219.468,296.468 280.183,225.896 229.473,225.896 339.144,101.099 
	361.679,120.901 295.774,195.896 345.565,195.896 "/>
<polygon style="fill:#EE2500;" points="339.144,101.099 256,195.71 256,225.896 280.183,225.896 256,254.005 256,300.004 
	345.565,195.896 295.774,195.896 361.679,120.901 "/>
<g>
</g>
<g>
</g>
<g>
</g>
<g>
</g>
<g>
</g>
<g>
</g>
<g>
</g>
<g>
</g>
<g>
</g>
<g>
</g>
<g>
</g>
<g>
</g>
<g>
</g>
<g>
</g>
<g>
</g>
</svg>
