<?xml version="1.0"?>
<svg xmlns="http://www.w3.org/2000/svg" height="512px" viewBox="0 -83 512.00001 512" width="512px"><path d="m499.300781 88.859375h-94.277343c-.203126-2.671875-.4375-5.355469-.691407-8.050781-.492187-5.117188-4.398437-9.28125-9.488281-10.105469-13.800781-2.257813-28.0625-6.222656-42.382812-11.804687-3.9375-1.539063-8.375.410156-9.90625 4.347656s.417968 8.375 4.355468 9.902344c14.28125 5.570312 28.550782 9.652343 42.464844 12.140624 17.867188 209.074219-101.734375 278.964844-185.714844 229.671876 7.128906 2.765624 14.523438-.085938 17.945313-4.566407l67.238281-87.875c2.570312-3.351562 1.933594-8.15625-1.425781-10.722656-3.355469-2.570313-8.15625-1.929687-10.722657 1.425781-.207031.269532-66.875 87.546875-67.214843 87.546875-.480469 0-1.109375-.5625-1.109375-.894531 0-.210938 42.097656-88.351562 42.191406-88.542969 4.671875-9.789062-2.523438-21.015625-13.261719-21.015625h-39.335937c84.449218-132 85.632812-134.691406 85.632812-130.820312 0 .28125-30.128906 85.222656-30.222656 85.488281-3.417969 9.613281 3.773438 19.601563 13.84375 19.601563h46.691406l-18.621094 24.332031c-2.566406 3.355469-1.929687 8.160156 1.425782 10.726562 3.359375 2.570313 8.160156 1.929688 10.726562-1.425781 20.894532-27.304688 22.410156-27.820312 22.410156-34.210938 0-8.117187-6.597656-14.722656-14.707031-14.722656h-47.0625c32.46875-91.632812 30.816407-85.769531 30.816407-89.785156 0-15.609375-20.953126-22.433594-29.914063-8.582031-91.9375 143.703125-86.839844 133.957031-86.839844 139.992187 0 8.109375 6.597657 14.707032 14.703125 14.707032h39.488282c-45.128907 94.5625-43.269532 89.117187-43.269532 94.261718 0 4.628906 2.105469 8.867188 5.386719 11.851563-68.445313-44.976563-83.226563-144.046875-76.003906-226.339844 55.890625-9.671875 102.84375-42.089844 133.34375-68.753906 19.65625 17.269531 40.671875 31.867187 62.511719 43.40625 3.742187 1.96875 8.363281.539062 10.34375-3.195313 1.96875-3.730468.539062-8.363281-3.191407-10.34375-21.71875-11.464844-42.609375-26.132812-62.082031-43.605468-4.308594-3.847657-10.78125-3.871094-15.089844-.03125-29.398437 26.183593-76.035156 59.226562-131.253906 67.914062-5.140625.808594-9.066406 4.980469-9.546875 10.140625-.246094 2.652344-.46875 5.304687-.664063 7.9375h-94.121093c-7.007813 0-12.699219 5.703125-12.699219 12.710937 0 5.773438-.148438 4.09375 35.589844 50.605469 2.386718 3.109375 6.152344 4.957031 10.070312 4.957031h16.71875c4.222656 0 7.648438-3.417968 7.648438-7.648437 0-4.226563-3.425782-7.652344-7.648438-7.652344h-15.433594l-28.949218-37.671875h87.898437c-.609375 13.363282-.589843 26.210938-.070312 37.671875h-12.699219c-4.226562 0-7.652344 3.425781-7.652344 7.652344 0 4.230469 3.425782 7.648437 7.652344 7.648437h13.65625c.277344 3.296876.59375 6.558594.960938 9.792969h-44.394532c-10.527344 0-16.472656 12.078125-10.058594 20.433594l32.949219 42.882813c2.386719 3.113281 6.152344 4.96875 10.066407 4.96875h27.023437c1.214844 3.324218 2.507813 6.589843 3.855469 9.792968h-13.179688c-10.511718 0-16.476562 12.074219-10.066406 20.421875l32.957031 42.894531c2.386719 3.101563 6.140625 4.957032 10.058594 4.957032h28.226563c49.292968 42.53125 115.375 43.167968 164.417968 0h25.449219c3.917969 0 7.679687-1.855469 10.058594-4.957032l32.957031-42.894531c6.40625-8.339843.457031-20.421875-10.066406-20.421875h-11.832032c1.292969-3.203125 2.527344-6.46875 3.691407-9.792968h25.839843c3.914063 0 7.679688-1.855469 10.066407-4.96875l32.949219-42.894532c6.421874-8.34375.453124-20.421875-10.058594-20.421875h-44.078125c.335937-3.234375.625-6.496093.878906-9.792969h60.886719c3.917968 0 7.683594-1.855468 10.070312-4.957031 35.492188-46.195312 35.589844-44.792969 35.589844-50.605469 0-7.007812-5.691406-12.710937-12.699219-12.710937zm-401.710937 131.050781-28.949219-37.683594h41.140625c2.089844 13.191407 4.90625 25.769532 8.457031 37.683594zm50.648437 78.066406-28.941406-37.671874h15.027344c9.75 18.925781 21.847656 34.0625 25.453125 37.671874zm244.464844-37.671874-28.941406 37.671874h-9.109375c9.476562-11.078124 17.71875-23.6875 24.65625-37.671874zm50.65625-78.078126-28.949219 37.683594h-19.699218c3.367187-11.90625 6.027343-24.484375 7.964843-37.683594zm21.695313-40.394531h-58.765626c.457032-12.484375.332032-25.089843-.277343-37.671875h87.992187zm0 0" fill="#933EC5"/></svg>
